<svg width="200" height="200" viewBox="0 0 200 200" fill="none" xmlns="http://www.w3.org/2000/svg">
  <rect width="200" height="200" fill="#fafaf7"/>
  <rect x="6" y="6" width="188" height="188" stroke="#0a0a0a" stroke-width="1.2"/>
  <rect x="14" y="14" width="172" height="172" stroke="#0a0a0a" stroke-width="0.6"/>
  <g transform="translate(22 22) rotate(45)"><rect x="-2.4" y="-2.4" width="4.8" height="4.8" fill="#0a0a0a"/></g>
  <g transform="translate(178 22) rotate(45)"><rect x="-2.4" y="-2.4" width="4.8" height="4.8" fill="#0a0a0a"/></g>
  <g transform="translate(22 178) rotate(45)"><rect x="-2.4" y="-2.4" width="4.8" height="4.8" fill="#0a0a0a"/></g>
  <g transform="translate(178 178) rotate(45)"><rect x="-2.4" y="-2.4" width="4.8" height="4.8" fill="#0a0a0a"/></g>
  <circle cx="100" cy="46" r="1" fill="#0a0a0a"/>
  <line x1="100" y1="46" x2="100" y2="84" stroke="#0a0a0a" stroke-width="0.7"/>
  <circle cx="100" cy="84" r="1" fill="#0a0a0a"/>
  <text x="100" y="128" text-anchor="middle" font-family="Cormorant Garamond, Georgia, serif" font-size="44" font-weight="600" fill="#0a0a0a" letter-spacing="6">ЕВА</text>
  <line x1="68" y1="146" x2="92" y2="146" stroke="#0a0a0a" stroke-width="0.6"/>
  <line x1="108" y1="146" x2="132" y2="146" stroke="#0a0a0a" stroke-width="0.6"/>
  <g transform="translate(100 146) rotate(45)"><rect x="-2" y="-2" width="4" height="4" fill="#0a0a0a"/></g>
  <g transform="translate(70 146) rotate(45)"><rect x="-1" y="-1" width="2" height="2" fill="#0a0a0a"/></g>
  <g transform="translate(130 146) rotate(45)"><rect x="-1" y="-1" width="2" height="2" fill="#0a0a0a"/></g>
  <text x="100" y="164" text-anchor="middle" font-family="system-ui, sans-serif" font-size="11" font-weight="400" fill="#0a0a0a" letter-spacing="6">ТСК</text>
  <circle cx="94" cy="176" r="1" fill="#0a0a0a"/>
  <circle cx="100" cy="176" r="1" fill="#0a0a0a"/>
  <circle cx="106" cy="176" r="1" fill="#0a0a0a"/>
</svg>
